<mxfile host="app.diagrams.net" modified="2023-12-04T14:09:52.106Z" agent="Mozilla/5.0 (Macintosh; Intel Mac OS X 10_15_7) AppleWebKit/537.36 (KHTML, like Gecko) Chrome/119.0.0.0 Safari/537.36" etag="rx4nemBUez6qmR5O6IGQ" version="22.1.5" type="github">
  <diagram name="第 1 页" id="wki9Lu-EvYa9kioTxKlD">
    <mxGraphModel dx="2074" dy="1055" grid="1" gridSize="10" guides="1" tooltips="1" connect="1" arrows="1" fold="1" page="1" pageScale="1" pageWidth="827" pageHeight="1169" math="0" shadow="0">
      <root>
        <mxCell id="0" />
        <mxCell id="1" parent="0" />
        <mxCell id="KOhP_a8CkZXBMH2VqZed-16" value="" style="edgeStyle=orthogonalEdgeStyle;rounded=0;orthogonalLoop=1;jettySize=auto;html=1;" edge="1" parent="1" source="KOhP_a8CkZXBMH2VqZed-1" target="KOhP_a8CkZXBMH2VqZed-15">
          <mxGeometry relative="1" as="geometry" />
        </mxCell>
        <mxCell id="KOhP_a8CkZXBMH2VqZed-1" value="" style="ellipse;whiteSpace=wrap;html=1;aspect=fixed;" vertex="1" parent="1">
          <mxGeometry x="260" y="110" width="40" height="40" as="geometry" />
        </mxCell>
        <mxCell id="KOhP_a8CkZXBMH2VqZed-19" value="" style="edgeStyle=orthogonalEdgeStyle;rounded=0;orthogonalLoop=1;jettySize=auto;html=1;" edge="1" parent="1" source="KOhP_a8CkZXBMH2VqZed-2" target="KOhP_a8CkZXBMH2VqZed-18">
          <mxGeometry relative="1" as="geometry" />
        </mxCell>
        <mxCell id="KOhP_a8CkZXBMH2VqZed-2" value="加载人物数据&lt;br&gt;人物UI显示" style="rounded=0;whiteSpace=wrap;html=1;" vertex="1" parent="1">
          <mxGeometry x="220" y="290" width="120" height="40" as="geometry" />
        </mxCell>
        <mxCell id="KOhP_a8CkZXBMH2VqZed-4" value="" style="edgeStyle=orthogonalEdgeStyle;rounded=0;orthogonalLoop=1;jettySize=auto;html=1;" edge="1" parent="1" source="KOhP_a8CkZXBMH2VqZed-3" target="KOhP_a8CkZXBMH2VqZed-1">
          <mxGeometry relative="1" as="geometry" />
        </mxCell>
        <mxCell id="KOhP_a8CkZXBMH2VqZed-3" value="页面载入" style="text;html=1;align=center;verticalAlign=middle;resizable=0;points=[];autosize=1;strokeColor=none;fillColor=none;" vertex="1" parent="1">
          <mxGeometry x="245" y="50" width="70" height="30" as="geometry" />
        </mxCell>
        <mxCell id="KOhP_a8CkZXBMH2VqZed-22" value="" style="edgeStyle=orthogonalEdgeStyle;rounded=0;orthogonalLoop=1;jettySize=auto;html=1;" edge="1" parent="1" source="KOhP_a8CkZXBMH2VqZed-8" target="KOhP_a8CkZXBMH2VqZed-21">
          <mxGeometry relative="1" as="geometry" />
        </mxCell>
        <mxCell id="KOhP_a8CkZXBMH2VqZed-8" value="怪物UI隐藏&lt;br&gt;加载怪物数据" style="rounded=0;whiteSpace=wrap;html=1;" vertex="1" parent="1">
          <mxGeometry x="220" y="450" width="120" height="40" as="geometry" />
        </mxCell>
        <mxCell id="KOhP_a8CkZXBMH2VqZed-108" style="edgeStyle=orthogonalEdgeStyle;rounded=0;orthogonalLoop=1;jettySize=auto;html=1;" edge="1" parent="1" source="KOhP_a8CkZXBMH2VqZed-10" target="KOhP_a8CkZXBMH2VqZed-107">
          <mxGeometry relative="1" as="geometry" />
        </mxCell>
        <mxCell id="KOhP_a8CkZXBMH2VqZed-10" value="显示文字动画【怪物加载中...】倒计时3秒" style="rounded=0;whiteSpace=wrap;html=1;" vertex="1" parent="1">
          <mxGeometry x="220" y="620" width="120" height="40" as="geometry" />
        </mxCell>
        <mxCell id="KOhP_a8CkZXBMH2VqZed-17" value="" style="edgeStyle=orthogonalEdgeStyle;rounded=0;orthogonalLoop=1;jettySize=auto;html=1;" edge="1" parent="1" source="KOhP_a8CkZXBMH2VqZed-15" target="KOhP_a8CkZXBMH2VqZed-2">
          <mxGeometry relative="1" as="geometry" />
        </mxCell>
        <mxCell id="KOhP_a8CkZXBMH2VqZed-15" value="status=1" style="shape=hexagon;perimeter=hexagonPerimeter2;whiteSpace=wrap;html=1;fixedSize=1;" vertex="1" parent="1">
          <mxGeometry x="242.5" y="190" width="75" height="40" as="geometry" />
        </mxCell>
        <mxCell id="KOhP_a8CkZXBMH2VqZed-20" value="" style="edgeStyle=orthogonalEdgeStyle;rounded=0;orthogonalLoop=1;jettySize=auto;html=1;" edge="1" parent="1" source="KOhP_a8CkZXBMH2VqZed-18" target="KOhP_a8CkZXBMH2VqZed-8">
          <mxGeometry relative="1" as="geometry" />
        </mxCell>
        <mxCell id="KOhP_a8CkZXBMH2VqZed-18" value="status=2" style="shape=hexagon;perimeter=hexagonPerimeter2;whiteSpace=wrap;html=1;fixedSize=1;" vertex="1" parent="1">
          <mxGeometry x="242.5" y="380" width="75" height="40" as="geometry" />
        </mxCell>
        <mxCell id="KOhP_a8CkZXBMH2VqZed-23" value="" style="edgeStyle=orthogonalEdgeStyle;rounded=0;orthogonalLoop=1;jettySize=auto;html=1;" edge="1" parent="1" source="KOhP_a8CkZXBMH2VqZed-21" target="KOhP_a8CkZXBMH2VqZed-10">
          <mxGeometry relative="1" as="geometry" />
        </mxCell>
        <mxCell id="KOhP_a8CkZXBMH2VqZed-21" value="status=3" style="shape=hexagon;perimeter=hexagonPerimeter2;whiteSpace=wrap;html=1;fixedSize=1;" vertex="1" parent="1">
          <mxGeometry x="242.5" y="540" width="75" height="40" as="geometry" />
        </mxCell>
        <mxCell id="KOhP_a8CkZXBMH2VqZed-30" value="" style="edgeStyle=orthogonalEdgeStyle;rounded=0;orthogonalLoop=1;jettySize=auto;html=1;" edge="1" parent="1" source="KOhP_a8CkZXBMH2VqZed-26" target="KOhP_a8CkZXBMH2VqZed-29">
          <mxGeometry relative="1" as="geometry" />
        </mxCell>
        <mxCell id="KOhP_a8CkZXBMH2VqZed-26" value="status=5" style="shape=hexagon;perimeter=hexagonPerimeter2;whiteSpace=wrap;html=1;fixedSize=1;" vertex="1" parent="1">
          <mxGeometry x="242.5" y="790" width="75" height="40" as="geometry" />
        </mxCell>
        <mxCell id="KOhP_a8CkZXBMH2VqZed-38" value="" style="edgeStyle=orthogonalEdgeStyle;rounded=0;orthogonalLoop=1;jettySize=auto;html=1;" edge="1" parent="1" source="KOhP_a8CkZXBMH2VqZed-29" target="KOhP_a8CkZXBMH2VqZed-32">
          <mxGeometry relative="1" as="geometry" />
        </mxCell>
        <mxCell id="KOhP_a8CkZXBMH2VqZed-29" value="进入战斗" style="rounded=0;whiteSpace=wrap;html=1;" vertex="1" parent="1">
          <mxGeometry x="220" y="860" width="120" height="40" as="geometry" />
        </mxCell>
        <mxCell id="KOhP_a8CkZXBMH2VqZed-31" style="edgeStyle=orthogonalEdgeStyle;rounded=0;orthogonalLoop=1;jettySize=auto;html=1;" edge="1" parent="1" source="KOhP_a8CkZXBMH2VqZed-29" target="KOhP_a8CkZXBMH2VqZed-29">
          <mxGeometry relative="1" as="geometry">
            <Array as="points">
              <mxPoint x="360" y="880" />
            </Array>
          </mxGeometry>
        </mxCell>
        <mxCell id="KOhP_a8CkZXBMH2VqZed-34" value="人物死亡（status=9））" style="edgeStyle=orthogonalEdgeStyle;rounded=0;orthogonalLoop=1;jettySize=auto;html=1;" edge="1" parent="1" source="KOhP_a8CkZXBMH2VqZed-32" target="KOhP_a8CkZXBMH2VqZed-33">
          <mxGeometry y="10" relative="1" as="geometry">
            <mxPoint as="offset" />
          </mxGeometry>
        </mxCell>
        <mxCell id="KOhP_a8CkZXBMH2VqZed-36" style="edgeStyle=orthogonalEdgeStyle;rounded=0;orthogonalLoop=1;jettySize=auto;html=1;exitX=1;exitY=0.5;exitDx=0;exitDy=0;entryX=0.5;entryY=1;entryDx=0;entryDy=0;" edge="1" parent="1" source="KOhP_a8CkZXBMH2VqZed-32" target="KOhP_a8CkZXBMH2VqZed-103">
          <mxGeometry relative="1" as="geometry">
            <mxPoint x="80" y="700" as="targetPoint" />
            <Array as="points">
              <mxPoint x="80" y="965" />
            </Array>
          </mxGeometry>
        </mxCell>
        <mxCell id="KOhP_a8CkZXBMH2VqZed-37" value="怪物死亡（status=7）" style="edgeLabel;html=1;align=center;verticalAlign=middle;resizable=0;points=[];" vertex="1" connectable="0" parent="KOhP_a8CkZXBMH2VqZed-36">
          <mxGeometry x="-0.0771" y="2" relative="1" as="geometry">
            <mxPoint x="-6" y="-147" as="offset" />
          </mxGeometry>
        </mxCell>
        <mxCell id="KOhP_a8CkZXBMH2VqZed-32" value="判断状态" style="rhombus;whiteSpace=wrap;html=1;" vertex="1" parent="1">
          <mxGeometry x="250" y="940" width="60" height="50" as="geometry" />
        </mxCell>
        <mxCell id="KOhP_a8CkZXBMH2VqZed-33" value="回到主城" style="rounded=0;whiteSpace=wrap;html=1;" vertex="1" parent="1">
          <mxGeometry x="220" y="1080" width="120" height="40" as="geometry" />
        </mxCell>
        <mxCell id="KOhP_a8CkZXBMH2VqZed-39" style="edgeStyle=orthogonalEdgeStyle;rounded=0;orthogonalLoop=1;jettySize=auto;html=1;" edge="1" parent="1" source="KOhP_a8CkZXBMH2VqZed-10" target="KOhP_a8CkZXBMH2VqZed-10">
          <mxGeometry relative="1" as="geometry" />
        </mxCell>
        <mxCell id="KOhP_a8CkZXBMH2VqZed-69" value="" style="edgeStyle=orthogonalEdgeStyle;rounded=0;orthogonalLoop=1;jettySize=auto;html=1;" edge="1" parent="1" source="KOhP_a8CkZXBMH2VqZed-40" target="KOhP_a8CkZXBMH2VqZed-68">
          <mxGeometry relative="1" as="geometry" />
        </mxCell>
        <mxCell id="KOhP_a8CkZXBMH2VqZed-40" value="" style="ellipse;whiteSpace=wrap;html=1;aspect=fixed;" vertex="1" parent="1">
          <mxGeometry x="625" y="450" width="30" height="30" as="geometry" />
        </mxCell>
        <mxCell id="KOhP_a8CkZXBMH2VqZed-41" value="战斗过程" style="text;html=1;align=center;verticalAlign=middle;resizable=0;points=[];autosize=1;strokeColor=none;fillColor=none;" vertex="1" parent="1">
          <mxGeometry x="605" y="400" width="70" height="30" as="geometry" />
        </mxCell>
        <mxCell id="KOhP_a8CkZXBMH2VqZed-45" value="" style="edgeStyle=orthogonalEdgeStyle;rounded=0;orthogonalLoop=1;jettySize=auto;html=1;" edge="1" parent="1" source="KOhP_a8CkZXBMH2VqZed-42" target="KOhP_a8CkZXBMH2VqZed-44">
          <mxGeometry relative="1" as="geometry" />
        </mxCell>
        <mxCell id="KOhP_a8CkZXBMH2VqZed-42" value="人物攻击计时" style="rounded=0;whiteSpace=wrap;html=1;" vertex="1" parent="1">
          <mxGeometry x="580" y="730" width="120" height="35" as="geometry" />
        </mxCell>
        <mxCell id="KOhP_a8CkZXBMH2VqZed-47" value="" style="edgeStyle=orthogonalEdgeStyle;rounded=0;orthogonalLoop=1;jettySize=auto;html=1;" edge="1" parent="1" source="KOhP_a8CkZXBMH2VqZed-44" target="KOhP_a8CkZXBMH2VqZed-46">
          <mxGeometry relative="1" as="geometry" />
        </mxCell>
        <mxCell id="KOhP_a8CkZXBMH2VqZed-48" value="已到人物攻击时间" style="edgeLabel;html=1;align=center;verticalAlign=middle;resizable=0;points=[];" vertex="1" connectable="0" parent="KOhP_a8CkZXBMH2VqZed-47">
          <mxGeometry x="-0.24" relative="1" as="geometry">
            <mxPoint x="11" as="offset" />
          </mxGeometry>
        </mxCell>
        <mxCell id="KOhP_a8CkZXBMH2VqZed-66" value="" style="edgeStyle=orthogonalEdgeStyle;rounded=0;orthogonalLoop=1;jettySize=auto;html=1;entryX=0.5;entryY=0;entryDx=0;entryDy=0;" edge="1" parent="1" source="KOhP_a8CkZXBMH2VqZed-44" target="KOhP_a8CkZXBMH2VqZed-117">
          <mxGeometry relative="1" as="geometry" />
        </mxCell>
        <mxCell id="KOhP_a8CkZXBMH2VqZed-67" value="未到人物攻击时间" style="edgeLabel;html=1;align=center;verticalAlign=middle;resizable=0;points=[];" vertex="1" connectable="0" parent="KOhP_a8CkZXBMH2VqZed-66">
          <mxGeometry x="-0.09" relative="1" as="geometry">
            <mxPoint y="-127" as="offset" />
          </mxGeometry>
        </mxCell>
        <mxCell id="KOhP_a8CkZXBMH2VqZed-44" value="&lt;font style=&quot;font-size: 10px;&quot;&gt;判断计时&lt;/font&gt;" style="rhombus;whiteSpace=wrap;html=1;" vertex="1" parent="1">
          <mxGeometry x="610" y="805" width="60" height="60" as="geometry" />
        </mxCell>
        <mxCell id="KOhP_a8CkZXBMH2VqZed-50" value="" style="edgeStyle=orthogonalEdgeStyle;rounded=0;orthogonalLoop=1;jettySize=auto;html=1;" edge="1" parent="1" source="KOhP_a8CkZXBMH2VqZed-46" target="KOhP_a8CkZXBMH2VqZed-49">
          <mxGeometry relative="1" as="geometry" />
        </mxCell>
        <mxCell id="KOhP_a8CkZXBMH2VqZed-46" value="计算怪物受伤害数值" style="whiteSpace=wrap;html=1;" vertex="1" parent="1">
          <mxGeometry x="850" y="815" width="130" height="40" as="geometry" />
        </mxCell>
        <mxCell id="KOhP_a8CkZXBMH2VqZed-52" value="" style="edgeStyle=orthogonalEdgeStyle;rounded=0;orthogonalLoop=1;jettySize=auto;html=1;" edge="1" parent="1" source="KOhP_a8CkZXBMH2VqZed-49" target="KOhP_a8CkZXBMH2VqZed-51">
          <mxGeometry relative="1" as="geometry" />
        </mxCell>
        <mxCell id="KOhP_a8CkZXBMH2VqZed-49" value="显示人物攻击动画" style="whiteSpace=wrap;html=1;" vertex="1" parent="1">
          <mxGeometry x="1060" y="815" width="130" height="40" as="geometry" />
        </mxCell>
        <mxCell id="KOhP_a8CkZXBMH2VqZed-54" value="" style="edgeStyle=orthogonalEdgeStyle;rounded=0;orthogonalLoop=1;jettySize=auto;html=1;" edge="1" parent="1" source="KOhP_a8CkZXBMH2VqZed-51" target="KOhP_a8CkZXBMH2VqZed-53">
          <mxGeometry relative="1" as="geometry" />
        </mxCell>
        <mxCell id="KOhP_a8CkZXBMH2VqZed-51" value="显示怪物受攻击效果" style="whiteSpace=wrap;html=1;" vertex="1" parent="1">
          <mxGeometry x="1270" y="815" width="130" height="40" as="geometry" />
        </mxCell>
        <mxCell id="KOhP_a8CkZXBMH2VqZed-58" value="" style="edgeStyle=orthogonalEdgeStyle;rounded=0;orthogonalLoop=1;jettySize=auto;html=1;" edge="1" parent="1" source="KOhP_a8CkZXBMH2VqZed-53" target="KOhP_a8CkZXBMH2VqZed-57">
          <mxGeometry relative="1" as="geometry" />
        </mxCell>
        <mxCell id="KOhP_a8CkZXBMH2VqZed-53" value="显示怪物受伤飘血" style="whiteSpace=wrap;html=1;" vertex="1" parent="1">
          <mxGeometry x="1270" y="935" width="130" height="40" as="geometry" />
        </mxCell>
        <mxCell id="KOhP_a8CkZXBMH2VqZed-60" value="" style="edgeStyle=orthogonalEdgeStyle;rounded=0;orthogonalLoop=1;jettySize=auto;html=1;" edge="1" parent="1" source="KOhP_a8CkZXBMH2VqZed-57" target="KOhP_a8CkZXBMH2VqZed-59">
          <mxGeometry relative="1" as="geometry" />
        </mxCell>
        <mxCell id="KOhP_a8CkZXBMH2VqZed-57" value="更新怪物UI" style="whiteSpace=wrap;html=1;" vertex="1" parent="1">
          <mxGeometry x="1060" y="935" width="130" height="40" as="geometry" />
        </mxCell>
        <mxCell id="KOhP_a8CkZXBMH2VqZed-62" value="" style="edgeStyle=orthogonalEdgeStyle;rounded=0;orthogonalLoop=1;jettySize=auto;html=1;entryX=0.5;entryY=0;entryDx=0;entryDy=0;" edge="1" parent="1" source="KOhP_a8CkZXBMH2VqZed-59" target="KOhP_a8CkZXBMH2VqZed-64">
          <mxGeometry relative="1" as="geometry">
            <mxPoint x="915" y="1085" as="targetPoint" />
          </mxGeometry>
        </mxCell>
        <mxCell id="KOhP_a8CkZXBMH2VqZed-63" value="怪物死亡" style="edgeLabel;html=1;align=center;verticalAlign=middle;resizable=0;points=[];" vertex="1" connectable="0" parent="KOhP_a8CkZXBMH2VqZed-62">
          <mxGeometry x="-0.0578" y="2" relative="1" as="geometry">
            <mxPoint as="offset" />
          </mxGeometry>
        </mxCell>
        <mxCell id="KOhP_a8CkZXBMH2VqZed-78" style="edgeStyle=orthogonalEdgeStyle;rounded=0;orthogonalLoop=1;jettySize=auto;html=1;" edge="1" parent="1" source="KOhP_a8CkZXBMH2VqZed-59">
          <mxGeometry relative="1" as="geometry">
            <mxPoint x="640" y="955" as="targetPoint" />
          </mxGeometry>
        </mxCell>
        <mxCell id="KOhP_a8CkZXBMH2VqZed-116" value="未死亡" style="edgeLabel;html=1;align=center;verticalAlign=middle;resizable=0;points=[];" vertex="1" connectable="0" parent="KOhP_a8CkZXBMH2VqZed-78">
          <mxGeometry x="-0.1507" relative="1" as="geometry">
            <mxPoint as="offset" />
          </mxGeometry>
        </mxCell>
        <mxCell id="KOhP_a8CkZXBMH2VqZed-59" value="&lt;font style=&quot;font-size: 10px;&quot;&gt;判断怪物&lt;br&gt;是否死亡&lt;/font&gt;" style="rhombus;whiteSpace=wrap;html=1;" vertex="1" parent="1">
          <mxGeometry x="875" y="915" width="80" height="80" as="geometry" />
        </mxCell>
        <mxCell id="KOhP_a8CkZXBMH2VqZed-76" style="edgeStyle=orthogonalEdgeStyle;rounded=0;orthogonalLoop=1;jettySize=auto;html=1;" edge="1" parent="1" source="KOhP_a8CkZXBMH2VqZed-64" target="KOhP_a8CkZXBMH2VqZed-75">
          <mxGeometry relative="1" as="geometry" />
        </mxCell>
        <mxCell id="KOhP_a8CkZXBMH2VqZed-64" value="status=7" style="shape=hexagon;perimeter=hexagonPerimeter2;whiteSpace=wrap;html=1;fixedSize=1;" vertex="1" parent="1">
          <mxGeometry x="877.5" y="1075" width="75" height="40" as="geometry" />
        </mxCell>
        <mxCell id="KOhP_a8CkZXBMH2VqZed-80" style="edgeStyle=orthogonalEdgeStyle;rounded=0;orthogonalLoop=1;jettySize=auto;html=1;" edge="1" parent="1" source="KOhP_a8CkZXBMH2VqZed-65" target="KOhP_a8CkZXBMH2VqZed-79">
          <mxGeometry relative="1" as="geometry" />
        </mxCell>
        <mxCell id="KOhP_a8CkZXBMH2VqZed-65" value="怪物攻击计时" style="whiteSpace=wrap;html=1;" vertex="1" parent="1">
          <mxGeometry x="580" y="1220" width="120" height="40" as="geometry" />
        </mxCell>
        <mxCell id="KOhP_a8CkZXBMH2VqZed-71" style="edgeStyle=orthogonalEdgeStyle;rounded=0;orthogonalLoop=1;jettySize=auto;html=1;" edge="1" parent="1" source="KOhP_a8CkZXBMH2VqZed-68" target="KOhP_a8CkZXBMH2VqZed-42">
          <mxGeometry relative="1" as="geometry" />
        </mxCell>
        <mxCell id="KOhP_a8CkZXBMH2VqZed-72" value="status==5" style="edgeLabel;html=1;align=center;verticalAlign=middle;resizable=0;points=[];" vertex="1" connectable="0" parent="KOhP_a8CkZXBMH2VqZed-71">
          <mxGeometry x="-0.3688" y="-1" relative="1" as="geometry">
            <mxPoint x="1" y="19" as="offset" />
          </mxGeometry>
        </mxCell>
        <mxCell id="KOhP_a8CkZXBMH2VqZed-74" value="" style="edgeStyle=orthogonalEdgeStyle;rounded=0;orthogonalLoop=1;jettySize=auto;html=1;" edge="1" parent="1" source="KOhP_a8CkZXBMH2VqZed-68" target="KOhP_a8CkZXBMH2VqZed-73">
          <mxGeometry relative="1" as="geometry" />
        </mxCell>
        <mxCell id="KOhP_a8CkZXBMH2VqZed-119" value="status!=5" style="edgeLabel;html=1;align=center;verticalAlign=middle;resizable=0;points=[];" vertex="1" connectable="0" parent="KOhP_a8CkZXBMH2VqZed-74">
          <mxGeometry x="-0.1556" y="1" relative="1" as="geometry">
            <mxPoint as="offset" />
          </mxGeometry>
        </mxCell>
        <mxCell id="KOhP_a8CkZXBMH2VqZed-68" value="&lt;font style=&quot;font-size: 10px;&quot;&gt;判断状态&lt;/font&gt;" style="rhombus;whiteSpace=wrap;html=1;" vertex="1" parent="1">
          <mxGeometry x="610" y="525" width="60" height="60" as="geometry" />
        </mxCell>
        <mxCell id="KOhP_a8CkZXBMH2VqZed-73" value="" style="ellipse;whiteSpace=wrap;html=1;" vertex="1" parent="1">
          <mxGeometry x="760" y="542.5" width="25" height="25" as="geometry" />
        </mxCell>
        <mxCell id="KOhP_a8CkZXBMH2VqZed-75" value="" style="ellipse;whiteSpace=wrap;html=1;" vertex="1" parent="1">
          <mxGeometry x="902.5" y="1155" width="25" height="25" as="geometry" />
        </mxCell>
        <mxCell id="KOhP_a8CkZXBMH2VqZed-113" style="edgeStyle=orthogonalEdgeStyle;rounded=0;orthogonalLoop=1;jettySize=auto;html=1;" edge="1" parent="1" source="KOhP_a8CkZXBMH2VqZed-79" target="KOhP_a8CkZXBMH2VqZed-112">
          <mxGeometry relative="1" as="geometry" />
        </mxCell>
        <mxCell id="KOhP_a8CkZXBMH2VqZed-114" value="已到怪物攻击时间" style="edgeStyle=orthogonalEdgeStyle;rounded=0;orthogonalLoop=1;jettySize=auto;html=1;" edge="1" parent="1" source="KOhP_a8CkZXBMH2VqZed-79" target="KOhP_a8CkZXBMH2VqZed-85">
          <mxGeometry relative="1" as="geometry" />
        </mxCell>
        <mxCell id="KOhP_a8CkZXBMH2VqZed-79" value="&lt;font style=&quot;font-size: 10px;&quot;&gt;判断计时&lt;/font&gt;" style="rhombus;whiteSpace=wrap;html=1;" vertex="1" parent="1">
          <mxGeometry x="610" y="1390" width="60" height="60" as="geometry" />
        </mxCell>
        <mxCell id="KOhP_a8CkZXBMH2VqZed-84" value="" style="edgeStyle=orthogonalEdgeStyle;rounded=0;orthogonalLoop=1;jettySize=auto;html=1;" edge="1" source="KOhP_a8CkZXBMH2VqZed-85" target="KOhP_a8CkZXBMH2VqZed-87" parent="1">
          <mxGeometry relative="1" as="geometry" />
        </mxCell>
        <mxCell id="KOhP_a8CkZXBMH2VqZed-85" value="计算人物受伤害数值" style="whiteSpace=wrap;html=1;" vertex="1" parent="1">
          <mxGeometry x="920" y="1400" width="130" height="40" as="geometry" />
        </mxCell>
        <mxCell id="KOhP_a8CkZXBMH2VqZed-86" value="" style="edgeStyle=orthogonalEdgeStyle;rounded=0;orthogonalLoop=1;jettySize=auto;html=1;" edge="1" source="KOhP_a8CkZXBMH2VqZed-87" target="KOhP_a8CkZXBMH2VqZed-89" parent="1">
          <mxGeometry relative="1" as="geometry" />
        </mxCell>
        <mxCell id="KOhP_a8CkZXBMH2VqZed-87" value="显示怪物攻击动画" style="whiteSpace=wrap;html=1;" vertex="1" parent="1">
          <mxGeometry x="1130" y="1400" width="130" height="40" as="geometry" />
        </mxCell>
        <mxCell id="KOhP_a8CkZXBMH2VqZed-88" value="" style="edgeStyle=orthogonalEdgeStyle;rounded=0;orthogonalLoop=1;jettySize=auto;html=1;" edge="1" source="KOhP_a8CkZXBMH2VqZed-89" target="KOhP_a8CkZXBMH2VqZed-91" parent="1">
          <mxGeometry relative="1" as="geometry" />
        </mxCell>
        <mxCell id="KOhP_a8CkZXBMH2VqZed-89" value="显示人物受攻击效果" style="whiteSpace=wrap;html=1;" vertex="1" parent="1">
          <mxGeometry x="1340" y="1400" width="130" height="40" as="geometry" />
        </mxCell>
        <mxCell id="KOhP_a8CkZXBMH2VqZed-90" value="" style="edgeStyle=orthogonalEdgeStyle;rounded=0;orthogonalLoop=1;jettySize=auto;html=1;" edge="1" source="KOhP_a8CkZXBMH2VqZed-91" target="KOhP_a8CkZXBMH2VqZed-93" parent="1">
          <mxGeometry relative="1" as="geometry" />
        </mxCell>
        <mxCell id="KOhP_a8CkZXBMH2VqZed-91" value="显示人物受伤飘血" style="whiteSpace=wrap;html=1;" vertex="1" parent="1">
          <mxGeometry x="1340" y="1585" width="130" height="40" as="geometry" />
        </mxCell>
        <mxCell id="KOhP_a8CkZXBMH2VqZed-92" value="" style="edgeStyle=orthogonalEdgeStyle;rounded=0;orthogonalLoop=1;jettySize=auto;html=1;" edge="1" source="KOhP_a8CkZXBMH2VqZed-93" target="KOhP_a8CkZXBMH2VqZed-96" parent="1">
          <mxGeometry relative="1" as="geometry" />
        </mxCell>
        <mxCell id="KOhP_a8CkZXBMH2VqZed-93" value="更新人物UI" style="whiteSpace=wrap;html=1;" vertex="1" parent="1">
          <mxGeometry x="1130" y="1585" width="130" height="40" as="geometry" />
        </mxCell>
        <mxCell id="KOhP_a8CkZXBMH2VqZed-94" value="" style="edgeStyle=orthogonalEdgeStyle;rounded=0;orthogonalLoop=1;jettySize=auto;html=1;entryX=0.5;entryY=0;entryDx=0;entryDy=0;" edge="1" source="KOhP_a8CkZXBMH2VqZed-96" target="KOhP_a8CkZXBMH2VqZed-98" parent="1">
          <mxGeometry relative="1" as="geometry">
            <mxPoint x="985" y="1735" as="targetPoint" />
          </mxGeometry>
        </mxCell>
        <mxCell id="KOhP_a8CkZXBMH2VqZed-95" value="死亡" style="edgeLabel;html=1;align=center;verticalAlign=middle;resizable=0;points=[];" vertex="1" connectable="0" parent="KOhP_a8CkZXBMH2VqZed-94">
          <mxGeometry x="-0.0578" y="2" relative="1" as="geometry">
            <mxPoint as="offset" />
          </mxGeometry>
        </mxCell>
        <mxCell id="KOhP_a8CkZXBMH2VqZed-115" value="未死亡" style="edgeStyle=orthogonalEdgeStyle;rounded=0;orthogonalLoop=1;jettySize=auto;html=1;" edge="1" parent="1" source="KOhP_a8CkZXBMH2VqZed-96">
          <mxGeometry relative="1" as="geometry">
            <mxPoint x="640" y="1605" as="targetPoint" />
          </mxGeometry>
        </mxCell>
        <mxCell id="KOhP_a8CkZXBMH2VqZed-96" value="&lt;font style=&quot;font-size: 10px;&quot;&gt;判断怪物&lt;br&gt;人物死亡&lt;/font&gt;" style="rhombus;whiteSpace=wrap;html=1;" vertex="1" parent="1">
          <mxGeometry x="945" y="1565" width="80" height="80" as="geometry" />
        </mxCell>
        <mxCell id="KOhP_a8CkZXBMH2VqZed-97" style="edgeStyle=orthogonalEdgeStyle;rounded=0;orthogonalLoop=1;jettySize=auto;html=1;" edge="1" source="KOhP_a8CkZXBMH2VqZed-98" target="KOhP_a8CkZXBMH2VqZed-99" parent="1">
          <mxGeometry relative="1" as="geometry" />
        </mxCell>
        <mxCell id="KOhP_a8CkZXBMH2VqZed-98" value="status=5" style="shape=hexagon;perimeter=hexagonPerimeter2;whiteSpace=wrap;html=1;fixedSize=1;" vertex="1" parent="1">
          <mxGeometry x="947.5" y="1725" width="75" height="40" as="geometry" />
        </mxCell>
        <mxCell id="KOhP_a8CkZXBMH2VqZed-99" value="" style="ellipse;whiteSpace=wrap;html=1;" vertex="1" parent="1">
          <mxGeometry x="972.5" y="1825" width="25" height="25" as="geometry" />
        </mxCell>
        <mxCell id="KOhP_a8CkZXBMH2VqZed-104" style="edgeStyle=orthogonalEdgeStyle;rounded=0;orthogonalLoop=1;jettySize=auto;html=1;" edge="1" parent="1" source="KOhP_a8CkZXBMH2VqZed-103">
          <mxGeometry relative="1" as="geometry">
            <mxPoint x="280" y="260" as="targetPoint" />
            <Array as="points">
              <mxPoint x="80" y="350" />
              <mxPoint x="280" y="350" />
            </Array>
          </mxGeometry>
        </mxCell>
        <mxCell id="KOhP_a8CkZXBMH2VqZed-103" value="清空怪物UI面板" style="rounded=0;whiteSpace=wrap;html=1;" vertex="1" parent="1">
          <mxGeometry x="20" y="620" width="120" height="40" as="geometry" />
        </mxCell>
        <mxCell id="KOhP_a8CkZXBMH2VqZed-109" style="edgeStyle=orthogonalEdgeStyle;rounded=0;orthogonalLoop=1;jettySize=auto;html=1;entryX=0.5;entryY=0;entryDx=0;entryDy=0;" edge="1" parent="1" source="KOhP_a8CkZXBMH2VqZed-107" target="KOhP_a8CkZXBMH2VqZed-26">
          <mxGeometry relative="1" as="geometry" />
        </mxCell>
        <mxCell id="KOhP_a8CkZXBMH2VqZed-107" value="怪物UI显示" style="rounded=0;whiteSpace=wrap;html=1;" vertex="1" parent="1">
          <mxGeometry x="220" y="700" width="120" height="40" as="geometry" />
        </mxCell>
        <mxCell id="KOhP_a8CkZXBMH2VqZed-111" value="" style="endArrow=classic;html=1;rounded=0;dashed=1;dashPattern=8 8;" edge="1" parent="1">
          <mxGeometry width="50" height="50" relative="1" as="geometry">
            <mxPoint x="370" y="880" as="sourcePoint" />
            <mxPoint x="610" y="490" as="targetPoint" />
          </mxGeometry>
        </mxCell>
        <mxCell id="KOhP_a8CkZXBMH2VqZed-112" value="" style="ellipse;whiteSpace=wrap;html=1;" vertex="1" parent="1">
          <mxGeometry x="627.5" y="1667.5" width="25" height="25" as="geometry" />
        </mxCell>
        <mxCell id="KOhP_a8CkZXBMH2VqZed-118" style="edgeStyle=orthogonalEdgeStyle;rounded=0;orthogonalLoop=1;jettySize=auto;html=1;" edge="1" parent="1" source="KOhP_a8CkZXBMH2VqZed-117" target="KOhP_a8CkZXBMH2VqZed-65">
          <mxGeometry relative="1" as="geometry" />
        </mxCell>
        <mxCell id="KOhP_a8CkZXBMH2VqZed-120" value="status==5" style="edgeLabel;html=1;align=center;verticalAlign=middle;resizable=0;points=[];" vertex="1" connectable="0" parent="KOhP_a8CkZXBMH2VqZed-118">
          <mxGeometry x="-0.0182" y="1" relative="1" as="geometry">
            <mxPoint as="offset" />
          </mxGeometry>
        </mxCell>
        <mxCell id="KOhP_a8CkZXBMH2VqZed-117" value="&lt;font style=&quot;font-size: 10px;&quot;&gt;判断状态&lt;/font&gt;" style="rhombus;whiteSpace=wrap;html=1;" vertex="1" parent="1">
          <mxGeometry x="610" y="1050" width="60" height="60" as="geometry" />
        </mxCell>
        <mxCell id="KOhP_a8CkZXBMH2VqZed-121" value="" style="edgeStyle=orthogonalEdgeStyle;rounded=0;orthogonalLoop=1;jettySize=auto;html=1;" edge="1" target="KOhP_a8CkZXBMH2VqZed-123" parent="1" source="KOhP_a8CkZXBMH2VqZed-117">
          <mxGeometry relative="1" as="geometry">
            <mxPoint x="675" y="1080" as="sourcePoint" />
          </mxGeometry>
        </mxCell>
        <mxCell id="KOhP_a8CkZXBMH2VqZed-122" value="status!=5" style="edgeLabel;html=1;align=center;verticalAlign=middle;resizable=0;points=[];" vertex="1" connectable="0" parent="KOhP_a8CkZXBMH2VqZed-121">
          <mxGeometry x="-0.1556" y="1" relative="1" as="geometry">
            <mxPoint as="offset" />
          </mxGeometry>
        </mxCell>
        <mxCell id="KOhP_a8CkZXBMH2VqZed-123" value="" style="ellipse;whiteSpace=wrap;html=1;" vertex="1" parent="1">
          <mxGeometry x="760" y="1067.5" width="25" height="25" as="geometry" />
        </mxCell>
      </root>
    </mxGraphModel>
  </diagram>
</mxfile>
